HIERARCHY
ROOT Hips
{
 OFFSET 0.000000 0.000000 0.000000
 CHANNELS 6 Xposition Yposition Zposition Yrotation Xrotation Zrotation
 JOINT Chest
 {
  OFFSET 0.000000 9.585900 0.002600
  CHANNELS 3 Yrotation Xrotation Zrotation
  JOINT Chest2
  {
   OFFSET 0.000000 9.601200 -0.005300
   CHANNELS 3 Yrotation Xrotation Zrotation
   JOINT Chest3
   {
    OFFSET 0.000000 9.561800 0.000000
    CHANNELS 3 Yrotation Xrotation Zrotation
    JOINT Chest4
    {
     OFFSET 0.000000 9.552100 0.000000
     CHANNELS 3 Yrotation Xrotation Zrotation
     JOINT Neck
     {
      OFFSET 0.000000 14.453000 0.000000
      CHANNELS 3 Yrotation Xrotation Zrotation
      JOINT Head
      {
       OFFSET 0.000000 8.936500 -0.011300
       CHANNELS 3 Yrotation Xrotation Zrotation
       End Site
       {
        OFFSET 0.000000 17.073600 -0.006000
       }
      }
     }
     JOINT RightCollar
     {
      OFFSET -2.921100 9.558500 0.000000
      CHANNELS 3 Yrotation Xrotation Zrotation
      JOINT RightShoulder
      {
       OFFSET -13.519700 0.000000 0.000000
       CHANNELS 3 Yrotation Xrotation Zrotation
       JOINT RightElbow
       {
        OFFSET 0.000000 -29.696600 0.000000
        CHANNELS 3 Yrotation Xrotation Zrotation
        JOINT RightWrist
        {
         OFFSET 0.000000 -24.004700 0.000000
         CHANNELS 3 Yrotation Xrotation Zrotation
         End Site
         {
          OFFSET 0.000000 -17.728500 0.000000
         }
        }
       }
      }
     }
     JOINT LeftCollar
     {
      OFFSET 2.921100 9.558500 0.000000
      CHANNELS 3 Yrotation Xrotation Zrotation
      JOINT LeftShoulder
      {
       OFFSET 13.519700 0.000000 0.000000
       CHANNELS 3 Yrotation Xrotation Zrotation
       JOINT LeftElbow
       {
        OFFSET 0.000000 -29.696600 0.000000
        CHANNELS 3 Yrotation Xrotation Zrotation
        JOINT LeftWrist
        {
         OFFSET 0.000000 -24.004700 0.000000
         CHANNELS 3 Yrotation Xrotation Zrotation
         End Site
         {
          OFFSET 0.000000 -17.728500 0.000000
         }
        }
       }
      }
     }
    }
   }
  }
 }
 JOINT RightHip
 {
  OFFSET -7.771700 -0.012900 -0.001300
  CHANNELS 3 Yrotation Xrotation Zrotation
  JOINT RightKnee
  {
   OFFSET 0.000000 -40.869800 0.001200
   CHANNELS 3 Yrotation Xrotation Zrotation
   JOINT RightAnkle
   {
    OFFSET 0.000000 -39.717900 0.002100
    CHANNELS 3 Yrotation Xrotation Zrotation
    JOINT RightToe
    {
     OFFSET 0.000000 -4.965400 11.033500
     CHANNELS 3 Yrotation Xrotation Zrotation
     End Site
     {
      OFFSET 0.000000 -1.423100 5.872300
     }
    }
   }
  }
 }
 JOINT LeftHip
 {
  OFFSET 7.771700 -0.012900 -0.001300
  CHANNELS 3 Yrotation Xrotation Zrotation
  JOINT LeftKnee
  {
   OFFSET 0.000000 -40.869800 0.001200
   CHANNELS 3 Yrotation Xrotation Zrotation
   JOINT LeftAnkle
   {
    OFFSET 0.000000 -39.717900 0.002100
    CHANNELS 3 Yrotation Xrotation Zrotation
    JOINT LeftToe
    {
     OFFSET 0.000000 -4.965400 11.033500
     CHANNELS 3 Yrotation Xrotation Zrotation
     End Site
     {
      OFFSET 0.000000 -1.423100 5.872300
     }
    }
   }
  }
 }
}
MOTION
Frames: 6
Frame Time: 0.008333
-52.539204 50.346564 36.576738 174.712344 -35.404986 -6.078567 6.228291 22.365493 7.197655 0.761740 3.395897 0.774991 1.249148 5.475905 1.271591 4.989507 18.815399 5.062284 -2.986331 17.046165 -0.122545 -5.479356 -4.091275 0.793341 1.074668 -0.034144 -4.394175 4.793557 -10.118847 -2.032054 -143.677317 -63.527021 134.940083 3.331665 -4.547986 65.882631 -13.520905 1.682783 -0.952200 7.041169 -12.962403 2.189039 110.947429 -50.679853 -129.864784 11.384031 18.988501 -76.770455 2.897013 -45.896063 7.579078 -48.109261 84.626279 -36.997494 -3.308798 -6.331904 -2.898820 -0.154165 0.924963 -0.063381 -11.861143 -49.396029 16.726657 -118.812380 87.327857 -126.092764 0.170635 -7.828800 4.034393 -0.158225 -0.282299 -0.031539
-52.535855 50.346198 36.578398 174.714484 -35.414150 -6.081341 6.250118 22.416915 7.220827 0.755387 3.382670 0.770146 1.259327 5.536361 1.281565 4.994813 18.857051 5.068311 -2.977113 17.082391 -0.097036 -5.470028 -4.023237 0.835730 1.076327 0.004744 -4.391537 4.856105 -10.199787 -2.084792 -143.249844 -63.471822 134.514306 3.169107 -4.630641 65.410070 -13.556807 1.745039 -0.931156 6.992491 -13.009397 2.154833 110.724742 -50.467932 -129.562791 11.713266 18.842090 -76.141703 2.898653 -45.892457 7.584252 -48.117516 84.625501 -37.004260 -3.297633 -6.314612 -2.904118 -0.164356 0.917784 -0.060715 -11.844038 -49.390241 16.734754 -118.736562 87.321531 -126.026682 0.157041 -7.828325 4.055588 -0.163980 -0.279911 -0.047690
-52.519384 50.340390 36.591626 174.807205 -35.347988 -6.217243 6.215425 22.395221 7.317492 0.758472 3.401113 0.773195 1.263547 5.565726 1.284108 5.000505 18.899948 5.074130 -2.968612 17.123780 -0.069533 -5.462529 -3.945464 0.881833 1.083802 0.040271 -4.389752 4.914537 -10.278214 -2.131427 -142.845601 -63.430764 134.109926 3.035221 -4.701283 64.891361 -13.586635 1.804416 -0.908404 6.936693 -13.057158 2.120473 110.573828 -50.306472 -129.301548 11.982910 18.705843 -75.551917 2.734336 -45.959676 7.711049 -48.129166 84.613901 -37.014209 -3.269798 -6.263621 -2.914489 -0.194914 0.885226 -0.059172 -12.071539 -49.566038 16.932392 -120.782067 87.256309 -128.095032 0.258589 -7.504110 4.114484 -0.263449 -0.588230 -0.091062
-52.513833 50.340597 36.592716 174.814811 -35.367289 -6.226144 6.245078 22.503971 7.347432 0.761992 3.422814 0.777329 1.250652 5.499367 1.273869 5.015187 18.992075 5.090413 -2.960509 17.166564 -0.041830 -5.455776 -3.865101 0.928492 1.090595 0.072542 -4.389140 4.986897 -10.356557 -2.173139 -142.450689 -63.393254 133.706752 2.930683 -4.754215 64.345007 -13.611686 1.857478 -0.886066 6.877028 -13.103905 2.088833 110.486030 -50.199732 -129.077322 12.206557 18.582106 -74.997152 2.726246 -45.946713 7.734170 -48.242692 84.605150 -37.128770 -3.279516 -6.244900 -2.920234 -0.179935 0.893812 -0.061013 -12.048810 -49.552522 16.940741 -120.653640 87.241752 -127.972605 0.246700 -7.499358 4.132383 -0.267060 -0.591759 -0.086059
-52.508045 50.341481 36.592186 174.823972 -35.399985 -6.229668 6.255130 22.582096 7.359897 0.767508 3.459187 0.782250 1.256186 5.536296 1.279232 5.013698 19.012081 5.087443 -2.953089 17.207860 -0.015915 -5.449768 -3.787601 0.972151 1.089520 0.107490 -4.387432 5.080919 -10.437230 -2.212989 -142.056424 -63.361471 133.294194 2.844743 -4.784125 63.792469 -13.635317 1.909480 -0.864895 6.820729 -13.148611 2.062117 110.458957 -50.149174 -128.894385 12.397176 18.473922 -74.471710 2.727425 -45.921480 7.752478 -48.396138 84.596910 -37.280394 -3.312088 -6.226597 -2.923261 -0.173338 0.888109 -0.058952 -12.025538 -49.524103 16.941311 -120.479731 87.223924 -127.810889 0.242943 -7.491863 4.147622 -0.272869 -0.599506 -0.086567
-52.501449 50.339097 36.595496 174.819155 -35.408130 -6.224555 6.270215 22.632905 7.365211 0.770294 3.477754 0.784506 1.264042 5.588245 1.286633 5.012353 19.030875 5.082258 -2.946938 17.245102 0.007232 -5.445269 -3.717662 1.011297 1.080383 0.149461 -4.381952 5.191577 -10.521068 -2.251687 -141.664852 -63.345871 132.876000 2.762194 -4.790597 63.250730 -13.656135 1.966972 -0.843977 6.769792 -13.190643 2.040166 110.493618 -50.149927 -128.758512 12.557210 18.389888 -73.974969 2.740088 -45.929890 7.777222 -48.334527 84.603343 -37.228723 -3.372760 -6.204017 -2.909251 -0.189061 0.884795 -0.063817 -12.004172 -49.524541 16.948934 -120.320664 87.205754 -127.658944 0.239957 -7.481932 4.155063 -0.271762 -0.605036 -0.094929
